{
  "accessors": [
    {
      "bufferView": 0,
      "byteOffset": 0,
      "componentType": 5125,
      "count": 16320,
      "max": [
        2753
      ],
      "min": [
        0
      ],
      "normalized": false,
      "type": "SCALAR"
    },
    {
      "bufferView": 1,
      "byteOffset": 0,
      "componentType": 5126,
      "count": 2754,
      "max": [
        -0.07858014106750488,
        0.20184177160263062,
        -0.022906005382537842
      ],
      "min": [
        -0.8424662351608276,
        -1.0813180208206177,
        -1.0929269790649414
      ],
      "normalized": false,
      "type": "VEC3"
    },
    {
      "bufferView": 2,
      "byteOffset": 0,
      "componentType": 5125,
      "count": 20160,
      "max": [
        3401
      ],
      "min": [
        0
      ],
      "normalized": false,
      "type": "SCALAR"
    },
    {
      "bufferView": 3,
      "byteOffset": 0,
      "componentType": 5126,
      "count": 3402,
      "max": [
        -0.019165128469467163,
        0.3145328164100647,
        0.05418640375137329
      ],
      "min": [
        -0.9580789804458618,
        -1.1881710290908813,
        -1.1959034204483032
      ],
      "normalized": false,
      "type": "VEC3"
    },
    {
      "bufferView": 4,
      "byteOffset": 0,
      "componentType": 5125,
      "count": 960,
      "max": [
        161
      ],
      "min": [
        0
      ],
      "normalized": false,
      "type": "SCALAR"
    },
    {
      "bufferView": 5,
      "byteOffset": 0,
      "componentType": 5126,
      "count": 162,
      "max": [
        -0.5348896980285645,
        -0.7555491328239441,
        -0.1408165693283081
      ],
      "min": [
        -0.6852370500564575,
        -0.9055385589599609,
        -0.2902906537055969
      ],
      "normalized": false,
      "type": "VEC3"
    },
    {
      "bufferView": 6,
      "byteOffset": 0,
      "componentType": 5125,
      "count": 3840,
      "max": [
        647
      ],
      "min": [
        0
      ],
      "normalized": false,
      "type": "SCALAR"
    },
    {
      "bufferView": 7,
      "byteOffset": 0,
      "componentType": 5126,
      "count": 648,
      "max": [
        -0.2757985591888428,
        -0.2264755368232727,
        -0.048976629972457886
      ],
      "min": [
        -0.7797399759292603,
        -0.6019499897956848,
        -0.8769349455833435
      ],
      "normalized": false,
      "type": "VEC3"
    }
  ],
  "asset": {
    "generator": "pygltflib@v1.15.3",
    "version": "2.0"
  },
  "bufferViews": [
    {
      "buffer": 0,
      "byteLength": 65280,
      "byteOffset": 0,
      "target": 34963
    },
    {
      "buffer": 0,
      "byteLength": 33048,
      "byteOffset": 65280,
      "target": 34962
    },
    {
      "buffer": 0,
      "byteLength": 80640,
      "byteOffset": 98328,
      "target": 34963
    },
    {
      "buffer": 0,
      "byteLength": 40824,
      "byteOffset": 178968,
      "target": 34962
    },
    {
      "buffer": 0,
      "byteLength": 3840,
      "byteOffset": 219792,
      "target": 34963
    },
    {
      "buffer": 0,
      "byteLength": 1944,
      "byteOffset": 223632,
      "target": 34962
    },
    {
      "buffer": 0,
      "byteLength": 15360,
      "byteOffset": 225576,
      "target": 34963
    },
    {
      "buffer": 0,
      "byteLength": 7776,
      "byteOffset": 240936,
      "target": 34962
    }
  ],
  "buffers": [
    {
      "byteLength": 248712,
      "uri": "model11.bin"
    }
  ],
  "materials": [
    {
      "alphaCutoff": 0.5,
      "alphaMode": "MASK",
      "doubleSided": true,
      "emissiveFactor": [
        0.0,
        0.0,
        0.0
      ],
      "pbrMetallicRoughness": {
        "baseColorFactor": [
          0.1,
          0.1,
          0.1,
          1.0
        ],
        "metallicFactor": 1.0,
        "roughnessFactor": 1.0
      }
    },
    {
      "alphaCutoff": 0.5,
      "alphaMode": "MASK",
      "doubleSided": true,
      "emissiveFactor": [
        0.0,
        0.0,
        0.0
      ],
      "pbrMetallicRoughness": {
        "baseColorFactor": [
          0.5,
          0.5,
          0.5,
          1.0
        ],
        "metallicFactor": 1.0,
        "roughnessFactor": 1.0
      }
    },
    {
      "alphaCutoff": 0.5,
      "alphaMode": "MASK",
      "doubleSided": true,
      "emissiveFactor": [
        0.0,
        0.0,
        0.0
      ],
      "pbrMetallicRoughness": {
        "baseColorFactor": [
          0.0,
          0.0,
          1.0,
          1.0
        ],
        "metallicFactor": 1.0,
        "roughnessFactor": 1.0
      }
    },
    {
      "alphaCutoff": 0.5,
      "alphaMode": "MASK",
      "doubleSided": true,
      "emissiveFactor": [
        0.0,
        0.0,
        0.0
      ],
      "pbrMetallicRoughness": {
        "baseColorFactor": [
          1.0,
          0.0,
          0.0,
          1.0
        ],
        "metallicFactor": 1.0,
        "roughnessFactor": 1.0
      }
    }
  ],
  "meshes": [
    {
      "primitives": [
        {
          "attributes": {
            "POSITION": 1
          },
          "indices": 0,
          "material": 0,
          "mode": 4
        }
      ]
    },
    {
      "primitives": [
        {
          "attributes": {
            "POSITION": 3
          },
          "indices": 2,
          "material": 1,
          "mode": 4
        }
      ]
    },
    {
      "primitives": [
        {
          "attributes": {
            "POSITION": 5
          },
          "indices": 4,
          "material": 2,
          "mode": 4
        }
      ]
    },
    {
      "primitives": [
        {
          "attributes": {
            "POSITION": 7
          },
          "indices": 6,
          "material": 3,
          "mode": 4
        }
      ]
    }
  ],
  "nodes": [
    {
      "mesh": 0
    },
    {
      "mesh": 1
    },
    {
      "mesh": 2
    },
    {
      "mesh": 3
    }
  ],
  "scene": 0,
  "scenes": [
    {
      "nodes": [
        0,
        1,
        2,
        3
      ]
    }
  ]
}