{
  "accessors": [
    {
      "bufferView": 0,
      "byteOffset": 0,
      "componentType": 5125,
      "count": 11520,
      "max": [
        1943
      ],
      "min": [
        0
      ],
      "normalized": false,
      "type": "SCALAR"
    },
    {
      "bufferView": 1,
      "byteOffset": 0,
      "componentType": 5126,
      "count": 1944,
      "max": [
        -0.04385495185852051,
        -0.11835789680480957,
        0.2607470750808716
      ],
      "min": [
        -0.8654688596725464,
        -0.9175539016723633,
        -1.3189311027526855
      ],
      "normalized": false,
      "type": "VEC3"
    },
    {
      "bufferView": 2,
      "byteOffset": 0,
      "componentType": 5125,
      "count": 16320,
      "max": [
        2753
      ],
      "min": [
        0
      ],
      "normalized": false,
      "type": "SCALAR"
    },
    {
      "bufferView": 3,
      "byteOffset": 0,
      "componentType": 5126,
      "count": 2754,
      "max": [
        0.1405770182609558,
        0.01816105842590332,
        0.4117373824119568
      ],
      "min": [
        -1.3709665536880493,
        -0.9905309081077576,
        -1.455320954322815
      ],
      "normalized": false,
      "type": "VEC3"
    },
    {
      "bufferView": 4,
      "byteOffset": 0,
      "componentType": 5125,
      "count": 1920,
      "max": [
        323
      ],
      "min": [
        0
      ],
      "normalized": false,
      "type": "SCALAR"
    },
    {
      "bufferView": 5,
      "byteOffset": 0,
      "componentType": 5126,
      "count": 324,
      "max": [
        0.013927876949310303,
        -0.3153727352619171,
        -0.18642300367355347
      ],
      "min": [
        -0.6051674485206604,
        -0.8890626430511475,
        -1.1629016399383545
      ],
      "normalized": false,
      "type": "VEC3"
    },
    {
      "bufferView": 6,
      "byteOffset": 0,
      "componentType": 5125,
      "count": 3840,
      "max": [
        647
      ],
      "min": [
        0
      ],
      "normalized": false,
      "type": "SCALAR"
    },
    {
      "bufferView": 7,
      "byteOffset": 0,
      "componentType": 5126,
      "count": 648,
      "max": [
        -0.6365538835525513,
        -0.2733094096183777,
        0.009220540523529053
      ],
      "min": [
        -1.2134013175964355,
        -0.7989031672477722,
        -0.5852780938148499
      ],
      "normalized": false,
      "type": "VEC3"
    },
    {
      "bufferView": 8,
      "byteOffset": 0,
      "componentType": 5125,
      "count": 960,
      "max": [
        161
      ],
      "min": [
        0
      ],
      "normalized": false,
      "type": "SCALAR"
    },
    {
      "bufferView": 9,
      "byteOffset": 0,
      "componentType": 5126,
      "count": 162,
      "max": [
        -0.7938143014907837,
        -0.3070821166038513,
        -0.154155433177948
      ],
      "min": [
        -1.1230254173278809,
        -0.6355094909667969,
        -0.48145440220832825
      ],
      "normalized": false,
      "type": "VEC3"
    }
  ],
  "asset": {
    "generator": "pygltflib@v1.15.3",
    "version": "2.0"
  },
  "bufferViews": [
    {
      "buffer": 0,
      "byteLength": 46080,
      "byteOffset": 0,
      "target": 34963
    },
    {
      "buffer": 0,
      "byteLength": 23328,
      "byteOffset": 46080,
      "target": 34962
    },
    {
      "buffer": 0,
      "byteLength": 65280,
      "byteOffset": 69408,
      "target": 34963
    },
    {
      "buffer": 0,
      "byteLength": 33048,
      "byteOffset": 134688,
      "target": 34962
    },
    {
      "buffer": 0,
      "byteLength": 7680,
      "byteOffset": 167736,
      "target": 34963
    },
    {
      "buffer": 0,
      "byteLength": 3888,
      "byteOffset": 175416,
      "target": 34962
    },
    {
      "buffer": 0,
      "byteLength": 15360,
      "byteOffset": 179304,
      "target": 34963
    },
    {
      "buffer": 0,
      "byteLength": 7776,
      "byteOffset": 194664,
      "target": 34962
    },
    {
      "buffer": 0,
      "byteLength": 3840,
      "byteOffset": 202440,
      "target": 34963
    },
    {
      "buffer": 0,
      "byteLength": 1944,
      "byteOffset": 206280,
      "target": 34962
    }
  ],
  "buffers": [
    {
      "byteLength": 208224,
      "uri": "model3.bin"
    }
  ],
  "materials": [
    {
      "alphaCutoff": 0.5,
      "alphaMode": "MASK",
      "doubleSided": true,
      "emissiveFactor": [
        0.0,
        0.0,
        0.0
      ],
      "pbrMetallicRoughness": {
        "baseColorFactor": [
          0.1,
          0.1,
          0.1,
          1.0
        ],
        "metallicFactor": 1.0,
        "roughnessFactor": 1.0
      }
    },
    {
      "alphaCutoff": 0.5,
      "alphaMode": "MASK",
      "doubleSided": true,
      "emissiveFactor": [
        0.0,
        0.0,
        0.0
      ],
      "pbrMetallicRoughness": {
        "baseColorFactor": [
          0.5,
          0.5,
          0.5,
          1.0
        ],
        "metallicFactor": 1.0,
        "roughnessFactor": 1.0
      }
    },
    {
      "alphaCutoff": 0.5,
      "alphaMode": "MASK",
      "doubleSided": true,
      "emissiveFactor": [
        0.0,
        0.0,
        0.0
      ],
      "pbrMetallicRoughness": {
        "baseColorFactor": [
          0.0,
          0.0,
          1.0,
          1.0
        ],
        "metallicFactor": 1.0,
        "roughnessFactor": 1.0
      }
    },
    {
      "alphaCutoff": 0.5,
      "alphaMode": "MASK",
      "doubleSided": true,
      "emissiveFactor": [
        0.0,
        0.0,
        0.0
      ],
      "pbrMetallicRoughness": {
        "baseColorFactor": [
          1.0,
          0.0,
          0.0,
          1.0
        ],
        "metallicFactor": 1.0,
        "roughnessFactor": 1.0
      }
    },
    {
      "alphaCutoff": 0.5,
      "alphaMode": "MASK",
      "doubleSided": true,
      "emissiveFactor": [
        0.0,
        0.0,
        0.0
      ],
      "pbrMetallicRoughness": {
        "baseColorFactor": [
          0.8,
          0.0,
          0.8,
          1.0
        ],
        "metallicFactor": 1.0,
        "roughnessFactor": 1.0
      }
    }
  ],
  "meshes": [
    {
      "primitives": [
        {
          "attributes": {
            "POSITION": 1
          },
          "indices": 0,
          "material": 0,
          "mode": 4
        }
      ]
    },
    {
      "primitives": [
        {
          "attributes": {
            "POSITION": 3
          },
          "indices": 2,
          "material": 1,
          "mode": 4
        }
      ]
    },
    {
      "primitives": [
        {
          "attributes": {
            "POSITION": 5
          },
          "indices": 4,
          "material": 2,
          "mode": 4
        }
      ]
    },
    {
      "primitives": [
        {
          "attributes": {
            "POSITION": 7
          },
          "indices": 6,
          "material": 3,
          "mode": 4
        }
      ]
    },
    {
      "primitives": [
        {
          "attributes": {
            "POSITION": 9
          },
          "indices": 8,
          "material": 4,
          "mode": 4
        }
      ]
    }
  ],
  "nodes": [
    {
      "mesh": 0
    },
    {
      "mesh": 1
    },
    {
      "mesh": 2
    },
    {
      "mesh": 3
    },
    {
      "mesh": 4
    }
  ],
  "scene": 0,
  "scenes": [
    {
      "nodes": [
        0,
        1,
        2,
        3,
        4
      ]
    }
  ]
}