{
  "accessors": [
    {
      "bufferView": 0,
      "byteOffset": 0,
      "componentType": 5125,
      "count": 3369,
      "max": [
        623
      ],
      "min": [
        0
      ],
      "normalized": false,
      "type": "SCALAR"
    },
    {
      "bufferView": 1,
      "byteOffset": 0,
      "componentType": 5126,
      "count": 624,
      "max": [
        0.7852505445480347,
        1.0,
        0.8688956499099731
      ],
      "min": [
        -0.6378785371780396,
        -0.8791072964668274,
        -1.0
      ],
      "normalized": false,
      "type": "VEC3"
    }
  ],
  "asset": {
    "generator": "pygltflib@v1.15.3",
    "version": "2.0"
  },
  "bufferViews": [
    {
      "buffer": 0,
      "byteLength": 13476,
      "byteOffset": 0,
      "target": 34963
    },
    {
      "buffer": 0,
      "byteLength": 7488,
      "byteOffset": 13476,
      "target": 34962
    }
  ],
  "buffers": [
    {
      "byteLength": 20964,
      "uri": "gem_789979.bin"
    }
  ],
  "materials": [
    {
      "alphaCutoff": 0.5,
      "alphaMode": "MASK",
      "doubleSided": true,
      "emissiveFactor": [
        0.0,
        0.0,
        0.0
      ],
      "extensions": {
        "KHR_materials_ior": {
          "ior": 1.2
        },
        "KHR_materials_thickness": {
          "thicknessFactor": 0.2
        },
        "KHR_materials_transmission": {
          "transmissionFactor": 1.0
        }
      },
      "name": "TransparentMaterial",
      "pbrMetallicRoughness": {
        "baseColorFactor": [
          0.9313639175617834,
          0.7268580223570358,
          0.7181195595415252,
          0.5
        ],
        "metallicFactor": 0.025,
        "roughnessFactor": 0.0
      }
    }
  ],
  "meshes": [
    {
      "primitives": [
        {
          "attributes": {
            "POSITION": 1
          },
          "indices": 0,
          "material": 0,
          "mode": 4
        }
      ]
    }
  ],
  "nodes": [
    {
      "mesh": 0
    }
  ],
  "scene": 0,
  "scenes": [
    {
      "nodes": [
        0
      ]
    }
  ]
}