{
  "accessors": [
    {
      "bufferView": 0,
      "byteOffset": 0,
      "componentType": 5125,
      "count": 3321,
      "max": [
        487
      ],
      "min": [
        0
      ],
      "normalized": false,
      "type": "SCALAR"
    },
    {
      "bufferView": 1,
      "byteOffset": 0,
      "componentType": 5126,
      "count": 488,
      "max": [
        1.0,
        0.8282095193862915,
        0.8751627206802368
      ],
      "min": [
        -1.0,
        -0.8295215964317322,
        -0.8471719622612
      ],
      "normalized": false,
      "type": "VEC3"
    }
  ],
  "asset": {
    "generator": "pygltflib@v1.15.3",
    "version": "2.0"
  },
  "bufferViews": [
    {
      "buffer": 0,
      "byteLength": 13284,
      "byteOffset": 0,
      "target": 34963
    },
    {
      "buffer": 0,
      "byteLength": 5856,
      "byteOffset": 13284,
      "target": 34962
    }
  ],
  "buffers": [
    {
      "byteLength": 19140,
      "uri": "gem_332092.bin"
    }
  ],
  "materials": [
    {
      "alphaCutoff": 0.5,
      "alphaMode": "MASK",
      "doubleSided": true,
      "emissiveFactor": [
        0.0,
        0.0,
        0.0
      ],
      "extensions": {
        "KHR_materials_ior": {
          "ior": 1.2
        },
        "KHR_materials_thickness": {
          "thicknessFactor": 0.2
        },
        "KHR_materials_transmission": {
          "transmissionFactor": 1.0
        }
      },
      "name": "TransparentMaterial",
      "pbrMetallicRoughness": {
        "baseColorFactor": [
          0.7200331564605034,
          0.4239418814388358,
          0.2512285240857064,
          0.5
        ],
        "metallicFactor": 0.025,
        "roughnessFactor": 0.0
      }
    }
  ],
  "meshes": [
    {
      "primitives": [
        {
          "attributes": {
            "POSITION": 1
          },
          "indices": 0,
          "material": 0,
          "mode": 4
        }
      ]
    }
  ],
  "nodes": [
    {
      "mesh": 0
    }
  ],
  "scene": 0,
  "scenes": [
    {
      "nodes": [
        0
      ]
    }
  ]
}