{
  "accessors": [
    {
      "bufferView": 0,
      "byteOffset": 0,
      "componentType": 5125,
      "count": 774,
      "max": [
        129
      ],
      "min": [
        0
      ],
      "normalized": false,
      "type": "SCALAR"
    },
    {
      "bufferView": 1,
      "byteOffset": 0,
      "componentType": 5126,
      "count": 130,
      "max": [
        0.7908696532249451,
        1.0,
        0.7024136185646057
      ],
      "min": [
        -1.0,
        -0.6501633524894714,
        -0.8893494606018066
      ],
      "normalized": false,
      "type": "VEC3"
    }
  ],
  "asset": {
    "generator": "pygltflib@v1.15.3",
    "version": "2.0"
  },
  "bufferViews": [
    {
      "buffer": 0,
      "byteLength": 3096,
      "byteOffset": 0,
      "target": 34963
    },
    {
      "buffer": 0,
      "byteLength": 1560,
      "byteOffset": 3096,
      "target": 34962
    }
  ],
  "buffers": [
    {
      "byteLength": 4656,
      "uri": "gem_852651.bin"
    }
  ],
  "materials": [
    {
      "alphaCutoff": 0.5,
      "alphaMode": "MASK",
      "doubleSided": true,
      "emissiveFactor": [
        0.0,
        0.0,
        0.0
      ],
      "extensions": {
        "KHR_materials_ior": {
          "ior": 1.2
        },
        "KHR_materials_thickness": {
          "thicknessFactor": 0.2
        },
        "KHR_materials_transmission": {
          "transmissionFactor": 1.0
        }
      },
      "name": "TransparentMaterial",
      "pbrMetallicRoughness": {
        "baseColorFactor": [
          0.01620683319513594,
          0.10596445089212625,
          0.5156072344191566,
          0.5
        ],
        "metallicFactor": 0.025,
        "roughnessFactor": 0.0
      }
    }
  ],
  "meshes": [
    {
      "primitives": [
        {
          "attributes": {
            "POSITION": 1
          },
          "indices": 0,
          "material": 0,
          "mode": 4
        }
      ]
    }
  ],
  "nodes": [
    {
      "mesh": 0
    }
  ],
  "scene": 0,
  "scenes": [
    {
      "nodes": [
        0
      ]
    }
  ]
}