{
  "accessors": [
    {
      "bufferView": 0,
      "byteOffset": 0,
      "componentType": 5125,
      "count": 834,
      "max": [
        145
      ],
      "min": [
        0
      ],
      "normalized": false,
      "type": "SCALAR"
    },
    {
      "bufferView": 1,
      "byteOffset": 0,
      "componentType": 5126,
      "count": 146,
      "max": [
        0.9869150519371033,
        1.0,
        0.9607264995574951
      ],
      "min": [
        -1.0,
        -0.999100923538208,
        -0.9713087677955627
      ],
      "normalized": false,
      "type": "VEC3"
    }
  ],
  "asset": {
    "generator": "pygltflib@v1.15.3",
    "version": "2.0"
  },
  "bufferViews": [
    {
      "buffer": 0,
      "byteLength": 3336,
      "byteOffset": 0,
      "target": 34963
    },
    {
      "buffer": 0,
      "byteLength": 1752,
      "byteOffset": 3336,
      "target": 34962
    }
  ],
  "buffers": [
    {
      "byteLength": 5088,
      "uri": "gem_655489.bin"
    }
  ],
  "materials": [
    {
      "alphaCutoff": 0.5,
      "alphaMode": "MASK",
      "doubleSided": true,
      "emissiveFactor": [
        0.0,
        0.0,
        0.0
      ],
      "extensions": {
        "KHR_materials_ior": {
          "ior": 1.2
        },
        "KHR_materials_thickness": {
          "thicknessFactor": 0.2
        },
        "KHR_materials_transmission": {
          "transmissionFactor": 1.0
        }
      },
      "name": "TransparentMaterial",
      "pbrMetallicRoughness": {
        "baseColorFactor": [
          0.8119830147433952,
          0.6026421340344058,
          0.46801163573065485,
          0.5
        ],
        "metallicFactor": 0.025,
        "roughnessFactor": 0.0
      }
    }
  ],
  "meshes": [
    {
      "primitives": [
        {
          "attributes": {
            "POSITION": 1
          },
          "indices": 0,
          "material": 0,
          "mode": 4
        }
      ]
    }
  ],
  "nodes": [
    {
      "mesh": 0
    }
  ],
  "scene": 0,
  "scenes": [
    {
      "nodes": [
        0
      ]
    }
  ]
}